<svg width="237" height="236" viewBox="0 0 237 236" fill="none" xmlns="http://www.w3.org/2000/svg">
<path d="M69.7305 98.84V81.09H111.35C111.35 81.09 119.92 83.54 122.98 89.05C122.98 89.05 130.94 100.07 122.98 114.15C122.98 114.15 119.31 120.27 110.74 121.5C110.74 121.5 121.76 123.34 122.37 131.91V158.84H101.56V136.19C101.56 136.19 101.56 129.46 94.8305 129.46H69.7305V110.47H99.2605C100.19 110.47 101.11 110.18 101.86 109.62C102.37 109.24 102.93 108.72 103.39 108.02C104.61 106.18 105.23 100.06 100.33 99.45L69.7305 98.84Z" fill="#F6B847"/>
<path d="M118.7 81.09H166.45V98.84H129.72C129.72 98.84 131.56 88.43 118.7 81.09Z" fill="#F6B847"/>
<path d="M127.88 110.47H141.96V136.18C141.96 136.18 141.35 139.24 145.02 139.24C148.69 139.24 165.22 139.24 165.22 139.24V158.83H136.45C136.45 158.83 127.27 158.83 126.66 152.71L126.07 130.31C126.05 129.72 125.91 129.14 125.65 128.62C124.86 127.03 123 123.65 121.15 122.72V119.05C121.15 119.04 126.05 119.04 127.88 110.47Z" fill="#F6B847"/>
<path d="M1.98024 111.27V114.54H5.96024V115.89H1.98024V119.24H6.42023V120.66H0.240234V109.86H6.42023V111.27H1.98024Z" fill="#F6B847"/>
<path d="M14.8403 119.26C14.5903 119.71 14.2003 120.08 13.6803 120.35C13.1603 120.63 12.5203 120.76 11.7703 120.76C11.0403 120.76 10.3803 120.63 9.80028 120.37C9.22028 120.11 8.75027 119.75 8.41027 119.28C8.06027 118.81 7.86027 118.27 7.81027 117.66H9.68027C9.73027 118.13 9.93027 118.53 10.2803 118.87C10.6303 119.21 11.1003 119.37 11.7003 119.37C12.2303 119.37 12.6403 119.23 12.9303 118.94C13.2203 118.65 13.3703 118.29 13.3703 117.84C13.3703 117.45 13.2603 117.13 13.0503 116.88C12.8403 116.63 12.5703 116.43 12.2503 116.29C11.9303 116.15 11.5003 115.98 10.9503 115.8C10.2803 115.59 9.73028 115.37 9.30028 115.16C8.88028 114.95 8.52028 114.63 8.22028 114.23C7.92028 113.82 7.78027 113.29 7.78027 112.62C7.78027 112.04 7.92027 111.53 8.21027 111.09C8.50027 110.65 8.90027 110.31 9.43027 110.07C9.96027 109.83 10.5703 109.71 11.2703 109.71C12.3703 109.71 13.2503 109.98 13.8903 110.51C14.5303 111.04 14.9103 111.73 15.0003 112.59H13.1203C13.0503 112.18 12.8603 111.83 12.5503 111.54C12.2403 111.25 11.8103 111.1 11.2703 111.1C10.7803 111.1 10.3903 111.22 10.0903 111.48C9.79027 111.74 9.65028 112.09 9.65028 112.56C9.65028 112.93 9.75027 113.23 9.96027 113.47C10.1603 113.71 10.4203 113.9 10.7303 114.04C11.0403 114.18 11.4703 114.34 12.0103 114.52C12.6903 114.73 13.2503 114.95 13.6903 115.17C14.1203 115.39 14.4903 115.71 14.7903 116.13C15.0903 116.55 15.2403 117.1 15.2403 117.78C15.2203 118.32 15.0903 118.81 14.8403 119.26Z" fill="#F6B847"/>
<path d="M23.9106 109.86V111.27H20.9006V120.67H19.1406V111.27H16.1406V109.86H23.9106Z" fill="#F6B847"/>
<path d="M33.8207 118.1C33.3807 118.91 32.7307 119.54 31.8807 119.99C31.0307 120.44 30.0107 120.66 28.8307 120.66H25.2207V109.86H28.8307C30.0107 109.86 31.0307 110.08 31.8807 110.53C32.7307 110.97 33.3807 111.6 33.8207 112.4C34.2607 113.2 34.4907 114.15 34.4907 115.25C34.4907 116.34 34.2707 117.29 33.8207 118.1ZM31.6707 118.08C32.3607 117.41 32.7107 116.46 32.7107 115.25C32.7107 114.04 32.3607 113.09 31.6707 112.42C30.9807 111.75 29.9807 111.41 28.6907 111.41H26.9607V119.09H28.6907C29.9807 119.09 30.9807 118.75 31.6707 118.08Z" fill="#F6B847"/>
<path d="M209.99 113.52C210.98 112.43 211.48 111.43 211.48 110.5C211.48 109.95 211.34 109.51 211.07 109.18C210.8 108.85 210.36 108.69 209.76 108.69C209.14 108.69 208.67 108.89 208.35 109.29C208.03 109.69 207.85 110.27 207.81 111.01H206.11C206.18 109.78 206.56 108.83 207.25 108.18C207.94 107.53 208.82 107.2 209.89 107.2C210.94 107.2 211.77 107.48 212.36 108.03C212.95 108.58 213.26 109.35 213.26 110.33C213.26 111.12 213.02 111.91 212.53 112.72C212.05 113.53 211.43 114.27 210.69 114.95C209.95 115.63 209.17 116.21 208.38 116.7H213.51V118.12H206.01V116.83C207.68 115.72 209 114.61 209.99 113.52Z" fill="#F6B847"/>
<path d="M214.88 112.73C214.88 111.02 215.19 109.67 215.8 108.71C216.41 107.74 217.43 107.26 218.86 107.26C220.29 107.26 221.31 107.75 221.92 108.72C222.53 109.69 222.84 111.03 222.84 112.74C222.84 114.45 222.53 115.8 221.92 116.78C221.31 117.76 220.29 118.25 218.86 118.25C217.43 118.25 216.41 117.76 215.8 116.79C215.19 115.81 214.88 114.46 214.88 112.73ZM221.1 112.73C221.1 111.51 220.95 110.56 220.64 109.91C220.33 109.25 219.74 108.92 218.86 108.92C217.97 108.92 217.38 109.25 217.07 109.9C216.76 110.55 216.61 111.5 216.61 112.73C216.61 113.97 216.76 114.93 217.07 115.59C217.38 116.25 217.97 116.58 218.86 116.58C219.74 116.58 220.33 116.25 220.64 115.59C220.95 114.93 221.1 113.98 221.1 112.73Z" fill="#F6B847"/>
<path d="M228.2 113.52C229.19 112.43 229.69 111.43 229.69 110.5C229.69 109.95 229.55 109.51 229.28 109.18C229.01 108.85 228.57 108.69 227.97 108.69C227.35 108.69 226.88 108.89 226.56 109.29C226.24 109.69 226.06 110.27 226.02 111.01H224.32C224.39 109.78 224.77 108.83 225.46 108.18C226.15 107.53 227.03 107.2 228.1 107.2C229.15 107.2 229.98 107.48 230.57 108.03C231.16 108.58 231.47 109.35 231.47 110.33C231.47 111.12 231.23 111.91 230.74 112.72C230.26 113.53 229.64 114.27 228.9 114.95C228.16 115.63 227.38 116.21 226.59 116.7H231.72V118.12H224.22V116.83C225.89 115.72 227.21 114.61 228.2 113.52Z" fill="#F6B847"/>
<path d="M232.5 109.05V107.41H235.96V118.21H234.12V109.04H232.5V109.05Z" fill="#F6B847"/>
<path d="M118.31 5.57001C168.93 5.57001 211.8 39.35 225.59 85.55H231.4C217.44 36.23 172.03 0 118.3 0C64.5702 0 19.1602 36.24 5.2002 85.55H11.0102C24.8202 39.35 67.6902 5.57001 118.31 5.57001Z" fill="#F6B847"/>
<path d="M118.31 229.45C67.8196 229.45 25.0396 195.85 11.1296 149.84H5.30957C19.3896 198.97 64.7096 235.03 118.3 235.03C171.89 235.03 217.22 198.97 231.29 149.84H225.47C211.58 195.85 168.8 229.45 118.31 229.45Z" fill="#F6B847"/>
<path d="M118.31 187.03C156.64 187.03 187.83 155.84 187.83 117.51C187.83 79.18 156.64 47.99 118.31 47.99C79.98 47.99 48.79 79.18 48.79 117.51C48.79 155.84 79.98 187.03 118.31 187.03ZM118.31 49.38C155.87 49.38 186.44 79.94 186.44 117.51C186.44 155.08 155.88 185.64 118.31 185.64C80.74 185.64 50.18 155.08 50.18 117.51C50.18 79.94 80.75 49.38 118.31 49.38Z" fill="#F6B847"/>
<path d="M198.57 69.63C201.6 74.7 204.12 80.03 206.12 85.55H207.61C205.55 79.78 202.93 74.21 199.77 68.92L198.57 69.63Z" fill="#F6B847"/>
<path d="M190.81 178.65C198.07 170.05 203.68 160.28 207.47 149.83H205.99C202.26 159.94 196.79 169.41 189.75 177.75L190.81 178.65Z" fill="#F6B847"/>
<path d="M46.8802 177.75C39.8402 169.41 34.3702 159.94 30.6402 149.83H29.1602C32.9502 160.27 38.5602 170.05 45.8202 178.65L46.8802 177.75Z" fill="#F6B847"/>
<path d="M36.8498 68.91C33.6898 74.2 31.0698 79.78 29.0098 85.54H30.4998C32.5098 80.02 35.0198 74.69 38.0498 69.62L36.8498 68.91Z" fill="#F6B847"/>
<path d="M197.93 117.51C197.93 110.62 197.05 103.94 195.4 97.56V137.46C197.05 131.08 197.93 124.4 197.93 117.51Z" fill="#F6B847"/>
<path d="M38.7002 117.51C38.7002 122.94 39.2502 128.25 40.2902 133.37V101.64C39.2502 106.77 38.7002 112.08 38.7002 117.51Z" fill="#F6B847"/>
<path d="M118.31 197.12C155.32 197.12 186.52 171.73 195.39 137.46V97.56C186.51 63.28 155.32 37.89 118.31 37.89C79.84 37.89 47.66 65.31 40.29 101.64V133.37C47.66 169.7 79.84 197.12 118.31 197.12ZM118.31 43.47C159.13 43.47 192.35 76.68 192.35 117.51C192.35 158.33 159.14 191.55 118.31 191.55C77.48 191.55 44.27 158.34 44.27 117.51C44.28 76.69 77.49 43.47 118.31 43.47Z" fill="#F6B847"/>
<path d="M236.63 127.42H203.33V128.81H236.63V127.42Z" fill="#F6B847"/>
<path d="M33.3 127.42H0V128.81H33.3V127.42Z" fill="#F6B847"/>
<path d="M151.95 27.03L150.87 23.73L149.8 27.03H146.33L148.74 28.79L149.14 29.08L148.06 32.38L150.87 30.34L152.29 31.36L153.68 32.38L152.61 29.08L155.42 27.03H151.95Z" fill="#F6B847"/>
<path d="M86.4599 27.03L85.3799 23.73L84.3098 27.03H80.8398L83.6498 29.08L82.5698 32.38L85.3799 30.34L88.1898 32.38L87.1198 29.08L89.9298 27.03H86.4599Z" fill="#F6B847"/>
<path d="M151.95 204.42L150.87 201.12L149.8 204.42H146.33L148.74 206.18L149.14 206.47L148.06 209.77L150.87 207.73L152.29 208.75L153.68 209.77L152.61 206.47L155.42 204.42H151.95Z" fill="#F6B847"/>
<path d="M86.4599 204.42L85.3799 201.12L84.3098 204.42H80.8398L83.6498 206.46L82.5698 209.77L85.3799 207.73L88.1898 209.77L87.1198 206.46L89.9298 204.42H86.4599Z" fill="#F6B847"/>
<path d="M127.82 19.19H120.84L118.69 12.56L117.21 17.12L116.53 19.19H109.56L115.2 23.29L113.05 29.92L117.21 26.9L118.69 25.83L123.33 29.19L124.33 29.92L122.93 25.62L122.18 23.29L122.74 22.87L127.82 19.19Z" fill="#F6B847"/>
<path d="M127.82 209.89H120.84L118.69 203.26L117.21 207.82L116.53 209.89H109.56L115.2 213.99L113.05 220.62L117.21 217.6L118.69 216.52L123.33 219.89L124.33 220.62L122.93 216.31L122.18 213.99L122.74 213.57L127.82 209.89Z" fill="#F6B847"/>
</svg>
