<svg width="180" height="177" viewBox="0 0 180 177" fill="none" xmlns="http://www.w3.org/2000/svg">
<path d="M53.4686 74.4408V61.0723H84.8156C84.8156 61.0723 91.2694 62.9162 93.5744 67.0651C93.5744 67.0651 99.5672 75.3628 93.5744 85.9655C93.5744 85.9655 90.8085 90.5753 84.3547 91.4973C84.3547 91.4973 92.6524 92.8803 93.1134 99.3341V119.617H77.4399V102.561C77.4399 102.561 77.4399 97.4901 72.369 97.4901H53.4686V83.1996H75.7112C76.4165 83.1996 77.1034 82.9829 77.6704 82.5634C78.053 82.2776 78.4725 81.8858 78.8274 81.3556C79.7494 79.9727 80.2104 75.3628 76.5225 74.9018L53.4686 74.4408Z" fill="#111413" fill-opacity="0.2"/>
<path d="M90.3474 61.0723H126.304V74.4408H98.6452C98.6452 74.4408 100.028 66.6041 90.3474 61.0723Z" fill="#111413" fill-opacity="0.2"/>
<path d="M97.2623 83.1992H107.865V102.561C107.865 102.561 107.404 104.866 110.17 104.866C112.936 104.866 125.382 104.866 125.382 104.866V119.617H103.716C103.716 119.617 96.8013 119.617 96.3403 115.007L95.8978 98.1398C95.8839 97.6972 95.7779 97.2593 95.5843 96.8628C94.9896 95.6689 93.5928 93.115 92.196 92.4189V89.653C92.1914 89.653 95.8793 89.653 97.2623 83.1992Z" fill="#111413" fill-opacity="0.2"/>
<path d="M43.1335 146.311C41.2389 147.344 39.0308 147.007 37.3067 145.403C34.8127 143.075 33.8631 139.364 36.9471 136.363C39.5747 133.8 43.1934 134.095 45.6874 136.423C46.8352 137.493 46.909 138.29 48.0384 138.756C48.6146 138.991 48.8359 139.526 48.5409 139.996C48.209 140.549 46.9827 142.112 46.6601 142.559C46.3143 143.029 45.9548 143.089 45.692 142.845C45.6689 142.822 45.692 142.845 45.6689 142.822C44.8207 142.029 46.9643 139.387 45.1296 137.672C43.8342 136.46 41.5892 136.815 40.1509 138.581C37.279 142.084 39.9066 145.214 42.5204 145.039C43.0505 144.997 43.3594 145.237 43.4654 145.5C43.5715 145.74 43.5484 146.09 43.1335 146.311Z" fill="#111413" fill-opacity="0.2"/>
<path d="M57.5578 152.346C55.5617 155.564 51.9568 156.099 48.9005 154.199C45.9317 152.356 44.8116 148.889 46.8076 145.671C48.8037 142.454 52.3072 141.859 55.3773 143.767C58.4337 145.667 59.5585 149.129 57.5578 152.346ZM54.188 150.014C55.4142 147.584 55.4603 145.505 54.211 144.869C52.9618 144.233 51.3114 145.496 50.076 147.944C48.8406 150.387 48.7945 152.466 50.053 153.089C51.3022 153.725 52.9526 152.457 54.188 150.014Z" fill="#111413" fill-opacity="0.2"/>
<path d="M73.5217 154.393L71.1199 161.234C70.8434 162.022 71.3228 162.409 71.1292 162.953C71.1199 162.986 71.1246 162.972 71.1199 162.986C70.9125 163.58 69.8384 163.387 68.6813 162.981C67.5058 162.571 66.547 162.05 66.759 161.455C66.7636 161.441 66.759 161.455 66.7682 161.423C66.9619 160.874 67.575 160.874 67.8515 160.086L70.2256 153.328C68.4001 155.435 65.5743 158.652 65.0672 159.219C64.6154 159.731 64.2881 159.796 63.8364 159.639C63.4491 159.505 63.0896 159.252 63.0158 158.427C62.9789 157.818 62.6655 153.766 62.4949 151.664L60.4481 157.491C60.1715 158.279 60.8123 158.722 60.6187 159.27C60.6095 159.302 60.6141 159.289 60.6095 159.302C60.4159 159.851 59.7152 159.837 58.9914 159.584C58.2677 159.33 57.7283 158.906 57.9219 158.357C57.9265 158.339 57.9219 158.357 57.9311 158.325C58.1248 157.777 58.8992 157.832 59.1758 157.044L61.5361 150.318C61.8126 149.53 61.2687 149.119 61.4623 148.575C61.4715 148.543 61.4623 148.575 61.4715 148.543C61.679 147.948 62.4304 148.031 63.297 148.336C65.5328 149.119 65.5144 149.691 65.5881 150.567C65.625 151.175 65.8232 154.375 65.9292 156.237C65.9292 156.237 69.4097 152.291 69.843 151.825C70.4469 151.189 71.0185 151.046 72.6642 151.622C73.8213 152.028 74.8124 152.448 74.605 153.042C74.6004 153.061 74.605 153.042 74.5958 153.075C74.4068 153.623 73.7937 153.623 73.5217 154.393Z" fill="#111413" fill-opacity="0.2"/>
<path d="M89.1353 156.389L88.3701 163.594C88.2825 164.424 88.8357 164.691 88.7758 165.268C88.7711 165.3 88.7757 165.286 88.7711 165.3C88.7066 165.927 87.6187 165.982 86.3971 165.853C85.157 165.719 84.1106 165.438 84.1751 164.811C84.1751 164.793 84.1751 164.811 84.1797 164.779C84.2397 164.203 84.8389 164.06 84.9265 163.23L85.6825 156.108C84.3918 158.579 82.3773 162.359 82.0177 163.023C81.695 163.622 81.3908 163.76 80.916 163.714C80.5103 163.673 80.0954 163.507 79.8372 162.723C79.6575 162.138 78.422 158.27 77.7812 156.26L77.1313 162.4C77.0437 163.23 77.7674 163.516 77.7075 164.092C77.7029 164.124 77.7075 164.111 77.7029 164.124C77.643 164.701 76.9561 164.853 76.1955 164.77C75.4302 164.687 74.8125 164.401 74.8724 163.825C74.8724 163.806 74.8724 163.825 74.877 163.792C74.937 163.216 75.7068 163.092 75.7944 162.262L76.5458 155.172C76.6334 154.342 76.0111 154.07 76.071 153.494C76.0756 153.462 76.071 153.494 76.0756 153.462C76.1401 152.835 76.8916 152.743 77.8043 152.839C80.1599 153.088 80.2752 153.651 80.5472 154.485C80.7269 155.071 81.6535 158.136 82.1837 159.925C82.1837 159.925 84.6638 155.283 84.9818 154.734C85.4244 153.973 85.9499 153.706 87.6786 153.89C88.9002 154.02 89.9605 154.199 89.8959 154.831C89.8959 154.849 89.896 154.831 89.8913 154.863C89.8176 155.43 89.2183 155.573 89.1353 156.389Z" fill="#111413" fill-opacity="0.2"/>
<path d="M102.628 153.627C102.633 153.659 102.628 153.627 102.633 153.659C102.693 154.236 101.965 154.517 102.052 155.347L102.555 160.265C102.836 163.031 101.425 165.179 98.3735 165.493C95.5246 165.783 92.9431 164.502 92.625 161.381L92.0995 156.241C92.0165 155.425 91.4172 155.282 91.3619 154.706C91.3573 154.674 91.3619 154.687 91.3573 154.674C91.2927 154.047 92.3576 153.867 93.5746 153.742C94.8147 153.618 95.8888 153.576 95.9533 154.203C95.9533 154.222 95.9533 154.203 95.9579 154.236C96.0178 154.812 95.46 155.075 95.543 155.891L96.0686 161.031C96.299 163.271 97.6221 164.147 99.1157 163.995C100.678 163.833 101.425 162.455 101.222 160.454L100.715 155.485C100.632 154.655 99.8625 154.526 99.8025 153.95C99.7979 153.918 99.8025 153.95 99.7979 153.918C99.738 153.341 100.36 153.055 101.126 152.977C101.891 152.899 102.568 153.051 102.628 153.627Z" fill="#111413" fill-opacity="0.2"/>
<path d="M115.075 149.991C115.084 150.023 115.075 149.991 115.084 150.023C115.255 150.576 114.609 150.987 114.854 151.784L117.237 159.635C117.523 160.58 117.214 161.087 116.559 161.285C115.743 161.534 115.333 161.354 114.614 160.861C113.918 160.395 109.128 157.003 106.768 155.329L108.534 161.156C108.778 161.954 109.552 161.935 109.723 162.488C109.732 162.521 109.727 162.507 109.732 162.521C109.903 163.074 109.345 163.475 108.612 163.701C107.879 163.927 107.178 163.904 107.008 163.35C107.003 163.332 107.008 163.35 106.998 163.318C106.828 162.765 107.487 162.35 107.247 161.548L105.178 154.725C104.933 153.928 104.274 153.914 104.103 153.356C104.094 153.324 104.103 153.356 104.094 153.324C103.91 152.72 104.564 152.342 105.445 152.075C107.128 151.563 107.501 151.738 108.289 152.282C108.764 152.619 112.821 155.523 115.043 157.095L113.554 152.181C113.309 151.383 112.549 151.397 112.383 150.844C112.374 150.812 112.383 150.844 112.374 150.812C112.203 150.258 112.761 149.857 113.494 149.631C114.227 149.406 114.909 149.438 115.075 149.991Z" fill="#111413" fill-opacity="0.2"/>
<path d="M120.713 148.861L123.806 155.416C124.161 156.172 124.774 156.107 125.023 156.633C125.037 156.665 125.032 156.647 125.037 156.665C125.304 157.237 124.424 157.841 123.294 158.371C122.169 158.901 121.123 159.205 120.856 158.638C120.846 158.624 120.856 158.638 120.842 158.606C120.593 158.08 121.031 157.647 120.676 156.891L117.583 150.336C117.232 149.593 116.624 149.658 116.375 149.133C116.361 149.1 116.366 149.119 116.361 149.1C116.094 148.529 117.034 148.008 118.159 147.478C119.284 146.947 120.27 146.556 120.542 147.127C120.551 147.141 120.542 147.127 120.556 147.159C120.8 147.685 120.362 148.118 120.713 148.861Z" fill="#111413" fill-opacity="0.2"/>
<path d="M132.463 143.246C132.449 143.255 132.463 143.246 132.436 143.265C131.481 143.891 130.108 142.08 128.766 142.96L128.351 143.232L132.841 150.078C133.298 150.779 133.897 150.631 134.215 151.115C134.233 151.143 134.224 151.129 134.233 151.143C134.579 151.668 133.777 152.401 132.735 153.084C131.693 153.766 130.716 154.204 130.37 153.678C130.361 153.664 130.37 153.678 130.352 153.651C130.034 153.167 130.407 152.678 129.946 151.977L125.456 145.132L125.041 145.404C123.7 146.284 124.816 148.262 123.847 148.898C123.834 148.907 123.847 148.898 123.834 148.907C123.52 149.114 123.197 148.999 122.93 148.46C122.672 147.976 122.234 146.962 121.994 146.381C121.782 145.869 121.833 145.546 122.248 145.274C122.732 144.956 123.078 145.076 123.834 144.583L128.494 141.522C129.25 141.024 129.264 140.674 129.762 140.342C130.163 140.079 130.476 140.158 130.877 140.549C131.315 140.996 132.053 141.817 132.413 142.237C132.795 142.698 132.763 143.048 132.463 143.246Z" fill="#111413" fill-opacity="0.2"/>
<path d="M139.645 132.708C139.659 132.722 139.645 132.708 139.668 132.731C140.065 133.155 139.715 133.976 139.977 134.875L141.305 139.549L143.246 141.61C143.817 142.218 144.38 141.969 144.776 142.393C144.79 142.407 144.776 142.393 144.79 142.407C145.233 142.877 144.486 143.652 143.582 144.505C142.674 145.358 141.872 146.044 141.425 145.574C141.411 145.56 141.425 145.574 141.411 145.56C141.015 145.136 141.296 144.592 140.724 143.984L139.111 142.269L134.109 140.863C133.201 140.619 132.348 140.808 131.823 140.25C131.809 140.236 131.823 140.25 131.809 140.236C131.352 139.752 131.758 139.088 132.878 138.037C133.772 137.193 134.814 136.308 135.243 136.769C135.257 136.783 135.243 136.769 135.266 136.792C135.663 137.217 135.395 137.774 136.206 138.065L139.94 139.397L138.747 135.861C138.415 134.838 137.921 135.184 137.548 134.787C137.525 134.764 137.548 134.787 137.525 134.764C137.128 134.34 137.534 133.653 138.092 133.128C138.608 132.653 139.281 132.321 139.645 132.708Z" fill="#111413" fill-opacity="0.2"/>
<path d="M48.2136 41.4706C47.2317 42.6368 46.2682 43.4021 44.7239 42.9872C43.1104 42.5769 42.0179 42.2266 39.5563 41.3553C39.5102 41.4106 39.464 41.4659 39.3995 41.5397L38.5605 42.54L41.0176 44.6099C41.9211 45.3751 42.6587 44.951 43.2856 45.4765C43.3225 45.5088 43.3041 45.4903 43.3225 45.5088C44.0048 46.085 43.2257 47.385 42.0917 48.7357C40.9577 50.0864 39.7914 51.0959 39.1045 50.5197C39.086 50.5059 39.1045 50.5197 39.0676 50.4874C38.4407 49.9573 38.7449 49.1414 37.8414 48.3807L30.1706 41.9223C29.2671 41.1617 28.5156 41.5996 27.8841 41.0741C27.8657 41.0603 27.8841 41.0741 27.8657 41.0603C27.1834 40.484 27.649 39.516 28.5018 38.5018L31.5213 34.9153C34.3241 31.587 37.6847 30.5959 40.2201 32.7303C41.663 33.9427 42.1101 35.5884 41.686 37.4047C46.8583 38.9167 47.7987 37.2756 48.8728 38.0224C49.6611 38.5525 49.5366 39.8986 48.2136 41.4706ZM36.8457 36.7316C35.3659 35.487 33.7202 35.2657 32.9088 36.2291C32.3971 36.8376 32.4432 37.3816 33.3468 38.1468L37.0992 41.3046L37.5371 40.7883C38.6758 39.4422 38.2517 37.9164 36.8457 36.7316Z" fill="#111413" fill-opacity="0.2"/>
<path d="M59.7429 22.4323C62.7393 26.8808 61.3333 31.8502 57.1014 34.6945C52.9894 37.4604 47.8633 36.8934 44.8669 32.4449C41.8705 27.9964 43.1382 23.1237 47.3885 20.261C51.6203 17.4121 56.7511 17.9791 59.7429 22.4323ZM54.7689 25.4287C52.3441 22.4323 49.6842 21.1599 48.1353 22.4092C46.5864 23.6539 47.264 26.5212 49.7026 29.5407C52.1412 32.5601 54.8011 33.8278 56.3362 32.5601C57.8851 31.3108 57.2121 28.4481 54.7689 25.4287Z" fill="#111413" fill-opacity="0.2"/>
<path d="M79.2702 23.5655C79.284 23.6116 79.2702 23.5655 79.284 23.6116C79.5698 24.4829 78.6525 25.0914 76.5873 25.769C74.9369 26.313 73.365 26.7279 73.0884 25.875C73.0792 25.852 73.0884 25.875 73.0792 25.852C72.821 25.0729 73.3373 24.5474 72.5444 23.6116L71.4888 22.3301L66.1413 24.0864L66.1183 25.5662C66.0814 27.0044 66.8374 26.9076 67.0817 27.6406C67.0956 27.6867 67.091 27.6637 67.0956 27.6867C67.3537 28.4658 66.4179 29.1065 65.3853 29.4431C64.4449 29.7519 63.38 29.7704 63.1495 29.0604C63.1403 29.0374 63.1495 29.0604 63.1357 29.0143C62.8775 28.2353 63.9148 27.4378 63.9563 26.1009L64.4679 15.4291C64.5186 14.2674 63.8548 14.1061 63.5967 13.3224C63.5829 13.2763 63.5967 13.3224 63.5829 13.2763C63.3063 12.4281 64.3066 11.8426 65.5466 11.437C67.22 10.8884 67.8424 10.9898 68.5799 11.838L76.9514 21.5233C77.7858 22.5237 78.9383 22.5513 79.2702 23.5655ZM70.1749 20.7258L66.2981 16.0468L66.1828 22.035L70.1749 20.7258Z" fill="#111413" fill-opacity="0.2"/>
<path d="M95.6905 15.6421C95.8887 20.3257 92.8601 24.2256 86.2449 24.5068L81.6812 24.7004C80.3766 24.7557 79.3301 24.5575 79.2933 23.6632C79.2933 23.6171 79.2933 23.6632 79.2933 23.6171C79.2564 22.7966 80.0677 22.4739 80.017 21.2891L79.5975 11.3411C79.5468 10.1563 78.7124 9.90279 78.6802 9.08224C78.6802 9.05919 78.6802 9.08224 78.6802 9.05919C78.6433 8.14183 79.6713 7.85602 80.9713 7.8007L85.535 7.60709C92.1455 7.32588 95.4923 10.9585 95.6905 15.6421ZM90.2832 15.8726C90.1356 12.3737 88.5591 9.3911 85.6364 9.51557C84.8159 9.55244 84.4701 9.9535 84.5208 11.1336L84.9403 21.0817C84.991 22.2664 85.3691 22.6352 86.1896 22.6029C89.1123 22.4739 90.4307 19.3714 90.2832 15.8726Z" fill="#111413" fill-opacity="0.2"/>
<path d="M113.139 16.047C113.116 16.0424 113.139 16.047 113.093 16.0378C111.516 15.6736 112.023 12.4928 109.81 11.9857L109.128 11.829L106.533 23.1323C106.265 24.2848 107.003 24.755 106.819 25.5525C106.809 25.5986 106.814 25.5756 106.809 25.5986C106.611 26.4699 105.071 26.3638 103.352 25.9674C101.633 25.5709 100.227 25.0039 100.429 24.1327C100.434 24.1096 100.429 24.1327 100.439 24.0866C100.623 23.2845 101.49 23.1877 101.752 22.0352L104.348 10.7318L103.665 10.5751C101.453 10.068 100.522 13.152 98.9173 12.7832C98.8943 12.7786 98.9173 12.7832 98.8943 12.7786C98.378 12.6587 98.1797 12.2162 98.4656 11.4141C98.7099 10.6765 99.3138 9.22901 99.6733 8.41768C99.9868 7.69854 100.369 7.43578 101.052 7.59251C101.854 7.77691 102.066 8.24711 103.315 8.53292L111.018 10.3031C112.267 10.5889 112.641 10.2524 113.466 10.446C114.125 10.5981 114.356 10.9992 114.347 11.7875C114.319 12.6726 114.208 14.2353 114.125 15.0098C114.024 15.8534 113.632 16.1576 113.139 16.047Z" fill="#111413" fill-opacity="0.2"/>
<path d="M122.709 34.0071C121.367 33.288 120.418 32.4997 120.51 30.9047C120.579 29.2406 120.699 28.1019 121.049 25.5158C120.985 25.4835 120.92 25.4466 120.837 25.4005L119.689 24.7828L118.168 27.6133C117.606 28.6551 118.173 29.2913 117.786 30.015C117.762 30.0565 117.776 30.0381 117.762 30.0565C117.338 30.8448 115.905 30.3469 114.351 29.5125C112.798 28.6782 111.571 27.7423 111.996 26.9587C112.009 26.9356 111.996 26.9587 112.019 26.9172C112.406 26.1934 113.268 26.3271 113.83 25.2853L118.578 16.4528C119.141 15.411 118.551 14.7656 118.943 14.0419C118.952 14.0188 118.943 14.0419 118.952 14.0188C119.376 13.2305 120.418 13.4887 121.589 14.1156L125.719 16.333C129.55 18.3936 131.209 21.4776 129.642 24.3956C128.748 26.0551 127.236 26.8342 125.364 26.7881C124.945 32.1586 126.747 32.744 126.235 33.9472C125.862 34.8231 124.521 34.9752 122.709 34.0071ZM125.014 21.9109C125.927 20.2098 125.802 18.5503 124.696 17.9556C123.995 17.5776 123.469 17.7344 122.907 18.7808L120.584 23.1002L121.178 23.4183C122.737 24.2573 124.143 23.5289 125.014 21.9109Z" fill="#111413" fill-opacity="0.2"/>
<path d="M138.262 28.8804L131.735 36.8094C130.983 37.7221 131.431 38.4689 130.91 39.1051C130.877 39.1419 130.896 39.1235 130.877 39.1419C130.31 39.8334 129.001 39.0682 127.637 37.948C126.272 36.8278 125.253 35.6753 125.82 34.9838C125.834 34.9654 125.82 34.9838 125.853 34.947C126.374 34.3108 127.194 34.6105 127.946 33.6977L134.473 25.7687C135.211 24.8744 134.759 24.1276 135.284 23.4915C135.317 23.4546 135.298 23.473 135.317 23.4546C135.884 22.7631 137.124 23.6574 138.484 24.7776C139.844 25.8978 140.941 26.9258 140.374 27.6173C140.36 27.6357 140.374 27.6173 140.341 27.6542C139.821 28.2857 139 27.9861 138.262 28.8804Z" fill="#111413" fill-opacity="0.2"/>
<path d="M148.81 43.8491C146.288 45.9604 142.785 45.2689 140.005 41.9545L139.263 41.0648L137.281 42.7243C136.502 43.3743 136.843 44.3516 136.142 44.937C136.124 44.9509 136.142 44.937 136.124 44.9509C135.455 45.5087 134.529 44.5867 133.159 42.9548C132.025 41.6041 131.103 40.3871 131.809 39.797C131.827 39.7832 131.809 39.797 131.827 39.7832C132.459 39.2577 133.205 39.7002 134.114 38.9396L141.932 32.3936C142.84 31.633 142.536 30.8171 143.163 30.2915C143.181 30.2777 143.163 30.2915 143.181 30.2777C143.868 29.7015 144.739 30.3284 145.574 31.3287L148.506 34.8322C151.29 38.1513 151.35 41.7286 148.81 43.8491ZM145.648 40.0736C147.127 38.8336 147.916 37.1003 147.063 36.0815C146.537 35.45 146.007 35.4223 145.099 36.1829L140.724 39.8431L141.065 40.2488C142.342 41.7701 144.237 41.2491 145.648 40.0736Z" fill="#111413" fill-opacity="0.2"/>
<path d="M2.44698 83.8024V86.2687H5.44339V87.2829H2.44698V89.8045H5.78913V90.8786H1.13318V82.7422H5.78913V83.8024H2.44698Z" fill="#111413" fill-opacity="0.2"/>
<path d="M12.1276 89.8228C11.934 90.1639 11.6436 90.4405 11.2518 90.6479C10.8599 90.8554 10.3805 90.9568 9.81348 90.9568C9.2603 90.9568 8.76705 90.86 8.32911 90.6618C7.89118 90.4682 7.54082 90.1916 7.27806 89.8366C7.0153 89.4816 6.86779 89.076 6.83091 88.615H8.23691C8.27379 88.97 8.42592 89.2742 8.69329 89.5277C8.96066 89.7813 9.31562 89.9104 9.75817 89.9104C10.1592 89.9104 10.4681 89.8043 10.6848 89.5877C10.9014 89.371 11.012 89.0944 11.012 88.7579C11.012 88.4675 10.9337 88.2278 10.7723 88.0388C10.611 87.8498 10.4128 87.7022 10.1731 87.5962C9.93334 87.4902 9.60604 87.3657 9.19576 87.2274C8.68868 87.0661 8.27379 86.9047 7.95571 86.7434C7.63763 86.582 7.36565 86.3469 7.14438 86.0381C6.92311 85.7292 6.80786 85.3282 6.80786 84.8303C6.80786 84.3924 6.91389 84.0098 7.13055 83.6778C7.34721 83.3459 7.65146 83.0924 8.05252 82.9126C8.45358 82.7328 8.91456 82.6406 9.43548 82.6406C10.2653 82.6406 10.9245 82.8388 11.4131 83.2399C11.9017 83.641 12.1783 84.1619 12.2475 84.8072H10.8277C10.7723 84.4984 10.6294 84.2356 10.3943 84.019C10.1592 83.8023 9.84115 83.6917 9.43087 83.6917C9.06208 83.6917 8.76705 83.7839 8.54116 83.9729C8.31528 84.1619 8.20925 84.4339 8.20925 84.7842C8.20925 85.0608 8.28762 85.2913 8.43975 85.4711C8.59187 85.6509 8.78549 85.7938 9.02059 85.8952C9.2557 85.9966 9.57377 86.1211 9.98405 86.2594C10.5004 86.4207 10.9198 86.5867 11.2471 86.748C11.5744 86.914 11.851 87.1537 12.0769 87.4671C12.3028 87.7806 12.4181 88.1955 12.4181 88.7118C12.4181 89.1082 12.3212 89.4816 12.1276 89.8228Z" fill="#111413" fill-opacity="0.2"/>
<path d="M18.964 82.7373V83.7976H16.6913V90.8737H15.3637V83.7976H13.1049V82.7373H18.964Z" fill="#111413" fill-opacity="0.2"/>
<path d="M26.4228 88.947C26.0863 89.5602 25.6023 90.0304 24.9569 90.3715C24.3115 90.7126 23.5509 90.8786 22.6566 90.8786H19.9368V82.7422H22.6566C23.5463 82.7422 24.3161 82.9081 24.9569 83.2447C25.5977 83.5812 26.0863 84.0514 26.4228 84.6553C26.7593 85.2592 26.9253 85.9783 26.9253 86.7989C26.9253 87.6194 26.7593 88.3339 26.4228 88.947ZM24.8048 88.9286C25.3257 88.4215 25.5884 87.7116 25.5884 86.7989C25.5884 85.8861 25.3257 85.1716 24.8048 84.6691C24.2839 84.162 23.5325 83.9085 22.5552 83.9085H21.2552V89.6938H22.5552C23.5325 89.6892 24.2839 89.4357 24.8048 88.9286Z" fill="#111413" fill-opacity="0.2"/>
<path d="M159.095 85.4979C159.841 84.6773 160.219 83.9213 160.219 83.2206C160.219 82.8057 160.118 82.4738 159.915 82.2295C159.712 81.9852 159.385 81.8607 158.929 81.8607C158.458 81.8607 158.108 82.0128 157.868 82.3171C157.629 82.6213 157.495 83.0546 157.463 83.6124H156.181C156.236 82.6812 156.522 81.9713 157.039 81.4827C157.555 80.994 158.219 80.7451 159.025 80.7451C159.818 80.7451 160.436 80.9526 160.888 81.3721C161.34 81.7916 161.561 82.3678 161.561 83.1054C161.561 83.6954 161.376 84.2947 161.012 84.9032C160.648 85.5117 160.182 86.0695 159.625 86.5812C159.062 87.0929 158.481 87.5308 157.882 87.8996H161.745V88.9737H156.098V88.0056C157.352 87.1528 158.348 86.3184 159.095 85.4979Z" fill="#111413" fill-opacity="0.2"/>
<path d="M162.778 84.9029C162.778 83.6121 163.008 82.6026 163.469 81.8696C163.93 81.1413 164.7 80.7725 165.774 80.7725C166.848 80.7725 167.618 81.1412 168.079 81.8742C168.54 82.6072 168.771 83.6167 168.771 84.8983C168.771 86.189 168.54 87.2032 168.079 87.9408C167.618 88.6784 166.848 89.0471 165.774 89.0471C164.7 89.0471 163.93 88.6784 163.469 87.9454C163.008 87.2217 162.778 86.2029 162.778 84.9029ZM167.457 84.9029C167.457 83.9809 167.342 83.271 167.111 82.7777C166.881 82.2845 166.433 82.0356 165.774 82.0356C165.106 82.0356 164.659 82.2799 164.428 82.7731C164.198 83.2664 164.082 83.9763 164.082 84.9029C164.082 85.8387 164.198 86.5578 164.428 87.0557C164.659 87.5536 165.11 87.8025 165.774 87.8025C166.433 87.8025 166.881 87.5536 167.111 87.0557C167.342 86.5624 167.457 85.8433 167.457 84.9029Z" fill="#111413" fill-opacity="0.2"/>
<path d="M172.809 85.4979C173.556 84.6773 173.934 83.9213 173.934 83.2206C173.934 82.8057 173.832 82.4738 173.629 82.2295C173.427 81.9852 173.099 81.8607 172.643 81.8607C172.173 81.8607 171.822 82.0128 171.583 82.3171C171.343 82.6213 171.209 83.0546 171.177 83.6124H169.895C169.951 82.6812 170.237 81.9713 170.753 81.4827C171.269 80.994 171.933 80.7451 172.74 80.7451C173.533 80.7451 174.15 80.9526 174.602 81.3721C175.049 81.7916 175.275 82.3678 175.275 83.1054C175.275 83.6954 175.091 84.2947 174.727 84.9032C174.362 85.5117 173.897 86.0695 173.339 86.5812C172.781 87.0929 172.2 87.5308 171.601 87.8996H175.464V88.9737H169.817V88.0056C171.066 87.1528 172.062 86.3184 172.809 85.4979Z" fill="#111413" fill-opacity="0.2"/>
<path d="M176.045 82.128V80.8926H178.649V89.029H177.267V82.128H176.045Z" fill="#111413" fill-opacity="0.2"/>
<path d="M90.0527 4.19958C128.176 4.19958 160.464 29.6368 170.845 64.4273H175.224C164.714 27.2903 130.509 0 90.0527 0C49.5966 0 15.3914 27.2903 4.88098 64.4273H9.26034C19.6463 29.6414 51.9292 4.19958 90.0527 4.19958Z" fill="#111413" fill-opacity="0.2"/>
<path d="M90.0525 172.8C52.0304 172.8 19.8122 147.497 9.33856 112.845H4.95459C15.5573 149.843 49.6886 177 90.0479 177C130.407 177 164.543 149.843 175.141 112.845H170.757C160.293 147.497 128.075 172.8 90.0525 172.8Z" fill="#111413" fill-opacity="0.2"/>
<path d="M90.0525 140.855C118.919 140.855 142.407 117.368 142.407 88.5006C142.407 59.6337 118.919 36.1465 90.0525 36.1465C61.1856 36.1465 37.6984 59.6337 37.6984 88.5006C37.6984 117.368 61.1856 140.855 90.0525 140.855ZM90.0525 37.1975C118.343 37.1975 141.356 60.2145 141.356 88.5006C141.356 116.787 118.339 139.804 90.0525 139.804C61.7664 139.804 38.7494 116.791 38.7494 88.5006C38.7494 60.2099 61.7618 37.1975 90.0525 37.1975Z" fill="#111413" fill-opacity="0.2"/>
<path d="M150.497 52.442C152.779 56.2589 154.673 60.2787 156.185 64.4322H157.306C155.752 60.0897 153.784 55.8901 151.4 51.9072L150.497 52.442Z" fill="#111413" fill-opacity="0.2"/>
<path d="M144.652 134.548C150.119 128.076 154.346 120.709 157.195 112.845H156.075C153.268 120.46 149.146 127.587 143.845 133.87L144.652 134.548Z" fill="#111413" fill-opacity="0.2"/>
<path d="M36.2602 133.87C30.9588 127.592 26.8376 120.46 24.0302 112.845H22.91C25.7635 120.709 29.9908 128.071 35.4534 134.548L36.2602 133.87Z" fill="#111413" fill-opacity="0.2"/>
<path d="M28.7093 51.9023C26.326 55.8853 24.3576 60.0848 22.8041 64.4273H23.9243C25.4363 60.2738 27.331 56.254 29.6128 52.4371L28.7093 51.9023Z" fill="#111413" fill-opacity="0.2"/>
<path d="M150.008 88.5001C150.008 83.314 149.345 78.28 148.104 73.4766V103.524C149.345 98.7201 150.008 93.6862 150.008 88.5001Z" fill="#111413" fill-opacity="0.2"/>
<path d="M30.0968 88.4995C30.0968 92.5885 30.5117 96.5852 31.2954 100.448V76.5508C30.5117 80.4138 30.0968 84.4106 30.0968 88.4995Z" fill="#111413" fill-opacity="0.2"/>
<path d="M90.0525 148.455C117.924 148.455 141.415 129.334 148.1 103.523V73.4762C141.415 47.661 117.924 28.5439 90.0525 28.5439C61.0842 28.5439 36.8502 49.1961 31.2953 76.551V100.448C36.8502 127.803 61.0842 148.455 90.0525 148.455ZM90.0525 32.7435C120.796 32.7435 145.809 57.7566 145.809 88.4997C145.809 119.243 120.796 144.256 90.0525 144.256C59.3094 144.256 34.2963 119.243 34.2963 88.4997C34.2963 57.7566 59.3094 32.7435 90.0525 32.7435Z" fill="#111413" fill-opacity="0.2"/>
<path d="M179.156 95.9639H154.079V97.0149H179.156V95.9639Z" fill="#111413" fill-opacity="0.2"/>
<path d="M26.0263 95.9639H0.94873V97.0149H26.0263V95.9639Z" fill="#111413" fill-opacity="0.2"/>
</svg>
