<svg width="182" height="121" viewBox="0 0 182 121" fill="none" xmlns="http://www.w3.org/2000/svg">
<g clip-path="url(#clip0_2865_2989)">
<path d="M121.373 1.95508H61.2907C29.0152 1.95508 2.85071 28.1196 2.85071 60.3951C2.85071 92.6706 29.0152 118.835 61.2907 118.835H121.373C153.649 118.835 179.813 92.6706 179.813 60.3951C179.813 28.1196 153.649 1.95508 121.373 1.95508Z" stroke="#011422" stroke-width="3.90909"/>
<path d="M70.9745 39.376H76.0871V67.3302C76.0871 70.2162 75.4067 72.7932 74.0462 75.0607C72.6993 77.3147 70.7959 79.0944 68.3358 80.4001C65.8758 81.6919 62.9895 82.3378 59.6774 82.3378C56.3652 82.3378 53.4792 81.6919 51.0191 80.4001C48.5591 79.0944 46.6488 77.3147 45.2882 75.0607C43.9411 72.7932 43.2678 70.2162 43.2678 67.3302V39.376H48.3804V66.9177C48.3804 68.9792 48.8338 70.8141 49.741 72.422C50.648 74.0162 51.94 75.2738 53.6166 76.1947C55.307 77.1016 57.3274 77.5552 59.6774 77.5552C62.0275 77.5552 64.0479 77.1016 65.7383 76.1947C67.4286 75.2738 68.7206 74.0162 69.6139 72.422C70.5209 70.8141 70.9745 68.9792 70.9745 66.9177V39.376Z" fill="#011422"/>
<path d="M124.388 81.5038H81.2029V39.2842H124.965C129.06 39.2842 132.565 40.1293 135.479 41.8198C138.392 43.4965 140.625 45.9083 142.179 49.0556C143.732 52.1892 144.508 55.9411 144.508 60.3114C144.508 64.7094 143.725 68.4957 142.158 71.6704C140.591 74.8314 138.31 77.2638 135.314 78.9681C132.318 80.6585 128.676 81.5038 124.388 81.5038ZM86.3155 76.9685H124.058C127.549 76.9685 130.442 76.295 132.737 74.9481C135.032 73.6013 136.743 71.6841 137.87 69.1965C138.997 66.709 139.56 63.7474 139.56 60.3114C139.56 56.9031 139.004 53.9689 137.891 51.5088C136.777 49.0351 135.114 47.1385 132.902 45.819C130.689 44.4859 127.934 43.8194 124.635 43.8194H86.3155V76.9685Z" fill="#011422"/>
</g>
<defs>
<clipPath id="clip0_2865_2989">
<rect width="180.965" height="121" fill="white" transform="translate(0.895752)"/>
</clipPath>
</defs>
</svg>
