<svg width="422" height="85" viewBox="0 0 422 85" fill="none" xmlns="http://www.w3.org/2000/svg">
<g clip-path="url(#clip0_2868_3139)">
<mask id="mask0_2868_3139" style="mask-type:luminance" maskUnits="userSpaceOnUse" x="0" y="0" width="85" height="85">
<path d="M85 0H0V85H85V0Z" fill="white"/>
</mask>
<g mask="url(#mask0_2868_3139)">
<mask id="mask1_2868_3139" style="mask-type:luminance" maskUnits="userSpaceOnUse" x="0" y="0" width="85" height="85">
<path d="M85 0H0V85H85V0Z" fill="white"/>
</mask>
<g mask="url(#mask1_2868_3139)">
<mask id="mask2_2868_3139" style="mask-type:luminance" maskUnits="userSpaceOnUse" x="0" y="0" width="85" height="85">
<path d="M0 42.5C0 19.0281 19.0281 0 42.5 0C65.9724 0 85 19.0281 85 42.5C85 65.9719 65.9724 85 42.5 85C19.0281 85 0 65.9719 0 42.5Z" fill="white"/>
</mask>
<g mask="url(#mask2_2868_3139)">
<path d="M7.79039 -5.58958C4.27585 -5.10965 1.55481 -3.11783 1.55481 1.06737C1.55481 4.05999 4.92061 7.82229 6.43039 10.2992C9.08819 14.6627 10.5327 18.7676 14.3178 22.4951C15.4119 23.5727 17.0812 24.5294 19.0632 25.3458C19.1928 25.2514 19.2841 25.1292 19.4199 25.0384C20.1475 24.5958 21.1681 24.1558 21.4609 23.1269C21.607 22.5372 21.4599 21.8058 21.6065 21.2161C21.8952 20.1872 23.6465 19.8814 23.7931 18.7055C23.7931 18.4142 23.6465 18.2716 23.7931 17.9767C23.9393 17.6817 24.3742 17.5392 24.8131 17.5392C25.2522 17.5392 25.5404 17.829 25.9793 17.9767C27.2922 18.2716 28.7652 17.3947 29.9313 16.9561C31.8256 16.3663 33.718 16.2088 35.7621 16.0652C36.0508 16.0652 36.4899 16.0673 36.7826 16.2114C37.2174 16.5062 37.5118 17.2464 37.3657 17.6848C37.2195 18.1275 37.0713 18.5706 36.7826 19.0133C38.2381 20.0416 41.1544 20.479 42.6134 21.5074C43.0483 21.8022 43.3405 22.0888 43.7796 22.2361C44.2144 22.3837 44.8027 22.3853 45.0914 22.0904C45.5304 21.6519 45.3817 20.9092 45.8206 20.4707C46.113 20.1758 46.6934 20.1773 47.1325 20.325C49.173 20.7677 51.0647 22.2361 53.1088 21.9448C53.5438 21.9448 53.837 21.9448 54.1293 21.9448C54.7109 21.9448 55.0027 22.6869 55.2956 23.2726C55.7237 24.3222 55.9289 25.2779 56.1378 26.2368C62.0935 23.3805 67.6133 19.0314 71.1682 14.3647C73.4389 11.3824 74.0536 8.31672 75.6706 5.13235C73.6919 3.18408 63.9676 -2.79858 61.2232 -1.89674C61.2232 2.261 58.4156 5.11731 55.5869 7.90211C48.4856 14.8954 31.3469 15.649 24.0684 9.19783C22.6416 7.93423 21.4754 6.54779 20.359 5.13235C18.9223 3.31054 17.5317 1.43795 16.0997 -0.439304C15.6845 -0.982994 15.3305 -1.53808 14.8848 -2.07503C14.0477 -3.08259 12.8033 -5.43855 11.4998 -5.58958C10.2233 -5.73745 8.96225 -5.74958 7.79039 -5.58958Z" fill="#257979"/>
<path d="M91.8356 14.5102C89.974 14.4034 90.5554 20.4746 89.1627 22.5924C86.3195 26.9165 83.3153 30.9654 79.3965 34.1565C75.3466 38.7279 69.861 41.7236 64.3174 44.2634C63.6197 44.9859 62.8843 45.6497 62.1472 46.2069C61.2734 46.7931 60.3959 47.529 59.815 48.4096C59.0827 49.7334 58.2098 51.2021 58.5027 52.6695C58.6488 54.1404 59.2309 55.4583 59.5232 56.9293C59.816 57.6628 59.816 58.3946 59.5232 59.1321C59.0841 60.0132 58.0646 60.459 57.1909 60.8974C56.4632 61.34 55.4416 62.3646 55.4416 62.9545C55.4416 63.098 55.4447 63.2442 55.5872 63.392C55.8801 64.129 56.6108 64.582 56.7533 65.3195C56.8996 65.9052 56.6103 66.7748 55.879 66.9226C55.5862 66.9226 55.2971 66.9226 55.0041 66.9226C54.7119 66.9226 54.1298 67.0811 54.1298 67.376C54.1298 67.5238 54.2785 67.6684 54.4211 67.9591C54.5677 68.549 54.1314 68.991 53.6924 69.4332C52.9653 70.1671 52.378 71.1907 51.9432 72.219C50.9189 73.6863 48.0093 74.2741 46.4036 74.4217C45.8227 74.569 45.2354 74.7151 44.8005 74.5673C44.0687 74.2724 43.4888 73.5396 43.4888 72.8021C43.4888 72.507 43.4888 72.2226 43.4888 71.9277C43.3421 71.3378 42.9026 71.0419 42.6139 70.5993C41.8826 69.4234 41.3031 68.2458 41.0102 66.9226C40.8641 66.3364 40.8652 65.5977 40.7189 65.0115C40.5682 64.4005 40.1862 63.8325 39.7793 63.2623C37.0655 69.6891 36.3913 77.7605 35.196 84.577C34.8789 86.3876 34.0621 88.8521 34.2403 90.6832C34.3398 91.7084 37.1214 90.9418 37.4796 90.9097C38.8169 90.7873 40.1752 90.7956 41.5125 90.6832C44.6497 90.4177 50.1524 89.8372 53.174 88.513C54.8368 87.7822 53.1031 82.4117 52.8015 80.8683C51.7379 75.4101 56.0076 71.0451 59.1018 66.8089C63.1465 61.2746 65.2202 71.611 70.0186 55.9902C75.9972 53.2624 82.2855 49.7934 87.2518 45.0733C88.1283 44.241 95.175 37.3135 95.2853 35.0315C95.4071 32.5504 95.3953 30.9971 95.2366 28.9254C95.0334 26.262 94.5318 14.6657 91.8356 14.5102Z" fill="#E5A31A"/>
<path d="M-2.59162 5.21451C-2.74349 5.08131 -3.08918 5.41094 -3.09385 5.58717C-3.25504 13.2937 -3.63599 21.0188 -3.09385 28.7154C-3.00315 29.9894 -0.745981 30.5378 0.356428 31.5018C2.76028 33.6019 7.53842 36.8422 8.48689 39.7131C9.97697 44.23 5.0309 44.7503 0.113347 44.7503C-0.191409 44.7503 -2.95184 44.2611 -3.57948 45.123C-3.81273 45.4434 -3.93089 48.0235 -4.08172 49.5125C-4.13198 50.0122 -4.08172 50.5817 -4.08172 51.0835C-4.08172 54.9997 -4.2398 58.9278 -4.08172 62.8419C-4.05373 63.5229 -2.89638 63.1353 -2.59162 63.0203C0.69539 61.7753 3.87046 60.5209 6.99679 59.1009C13.0173 56.3638 23.4453 53.7987 24.2461 47.7306C24.4887 45.8937 24.2487 44.1128 23.8252 42.3533C23.1499 42.3746 22.3988 42.0303 21.752 41.6406C21.0207 41.198 20.588 41.0621 20.0028 40.3289C18.9828 39.1528 17.8172 38.1177 16.5044 37.0895C16.3583 36.9418 16.2136 36.7997 16.0669 36.6521C16.0669 36.5044 16.0664 36.198 16.2126 35.9072C16.5054 35.1697 17.0901 34.4395 17.3788 33.5584C17.6715 32.6736 17.8183 31.6522 17.2331 30.9182C16.9444 30.4761 16.0669 29.8889 16.0669 29.2991C16.0669 29.2829 16.0825 29.2659 16.083 29.2503C12.9136 25.5197 9.48667 21.9128 6.75371 18.4631C3.32106 14.1307 1.77189 9.06542 -2.59162 5.21451Z" fill="#E5A31A"/>
<path d="M80.772 7.77246C79.4452 9.06353 79.3586 11.5166 78.6661 13.1985C77.3486 16.403 74.553 19.2579 72.1233 21.6207C68.8413 24.8113 62.4099 29.6289 57.7079 30.7716C57.6157 30.7945 57.4649 30.7997 57.3679 30.8203C57.6126 31.5242 57.8872 32.2104 58.3557 32.6831C58.7948 33.2729 59.3742 33.5565 59.9594 33.9949C60.9794 34.8797 61.4142 36.3517 62.2917 37.3799C62.4383 37.6748 62.7282 37.9775 63.0204 38.1253C63.3133 38.2724 63.7477 38.2709 64.1866 38.2709C65.6456 38.1231 67.3938 37.5322 68.4138 36.6512C68.1744 38.6756 67.1532 40.671 65.8223 42.4493C73.8548 37.7495 84.0066 31.5046 86.7483 22.1716C87.2507 20.4623 88.2769 18.1622 88.0928 16.373C87.9488 14.9705 81.4826 8.57788 80.772 7.77246Z" fill="#D17F46"/>
<path d="M36.6848 45.7217C30.2991 47.9608 20.1721 56.1482 14.3014 60.1043C8.66757 60.2349 3.41831 63.3508 -1.13386 66.6639C-1.70138 67.0753 -4.88993 68.9417 -4.98892 69.547C-6.06904 76.1543 -2.33838 83.8282 3.23898 87.3795C8.22029 90.5504 15.9745 89.915 21.768 90.2622C27.0619 90.579 22.1018 91.7363 27.4043 91.7363C30.5691 91.7363 35.1643 75.1835 33.9318 72.6729C36.0189 68.4322 37.5443 64.9639 38.8234 61.8375C38.4254 61.2155 38.0942 60.5833 38.0942 59.8778C38.0942 58.1157 39.4055 56.639 39.5521 54.8727C39.5521 53.111 38.9686 51.7908 37.9486 50.4671C36.9286 49.1441 36.7829 48.2593 36.6368 46.6447C36.5413 46.3561 36.6103 46.0502 36.6848 45.7217Z" fill="#D17F46"/>
<path d="M31.5016 41.1698C31.0461 41.059 30.5719 41.0548 30.2059 41.202C29.4788 41.4969 28.6059 42.0909 27.728 41.9473C27.2932 41.9473 26.7054 41.6395 26.2705 41.6395C26.0798 41.6395 25.8933 41.74 25.7035 41.8011C25.5512 42.6636 25.5065 43.6842 25.8004 45.1541C24.2783 45.931 25.3635 50.3825 26.8858 49.0739C32.3449 48.6374 31.7898 45.1135 33.1052 44.1174C33.4929 43.8241 33.848 43.4763 34.1906 43.1136C34.0273 43.0704 33.8542 43.0792 33.7045 42.9673C33.2695 42.6724 33.1233 42.0764 32.6845 41.7851C32.3937 41.4902 31.9577 41.2803 31.5016 41.1698Z" fill="#257979"/>
<path d="M96.6438 46.1279C88.1225 49.4217 76.7817 53.6297 72.5203 57.4148C67.9792 61.4482 69.7792 64.5937 64.6776 66.9653C56.4144 70.8069 49.5896 78.5077 57.2183 86.0665C59.0131 89.5391 65.3389 83.0308 69.0696 81.5527C79.0027 77.6195 86.9798 68.0185 92.3135 59.2153C93.3558 57.4962 98.1055 47.5751 96.6438 46.1279Z" fill="#257979"/>
<path d="M59.7136 -10.2821C57.878 -10.1038 56.2831 -8.25883 54.7003 -7.38171C51.6859 -5.71007 47.7437 -5.23199 44.3831 -4.90651C39.846 -4.46726 31.8274 -4.71863 27.4526 -6.75426C25.213 -7.79677 21.9748 -10.3361 19.6932 -10.5645C20.1779 -6.78931 19.0184 -3.87226 16.6296 -0.876521C16.0688 -0.173717 13.6551 1.04531 14.1594 1.9119C15.4432 4.11359 30.8184 8.95186 33.6518 9.3696C39.3241 14.1695 47.2451 10.3559 55.4342 4.62101C56.8849 3.60464 59.1129 2.45714 60.0787 0.951497C60.8358 -0.228138 59.7681 -9.21403 59.7136 -10.2821Z" fill="#E5A31A"/>
</g>
</g>
</g>
<path opacity="0.1" d="M107.067 1.63477V83.3655" stroke="#111413" stroke-width="1.63462"/>
<path d="M320.778 50.248C327.578 50.248 330.979 52.5855 330.979 57.2605V72.1355H326.728L324.306 69.713C323.484 70.6763 322.366 71.4273 320.948 71.9655C319.531 72.5038 318.186 72.773 316.911 72.773C315.664 72.773 314.659 72.6738 313.894 72.4755C313.129 72.2773 312.378 71.9373 311.641 71.4555C310.026 70.4355 309.219 68.5373 309.219 65.7605C309.219 60.6605 313.071 58.1105 320.778 58.1105H322.479V56.5805C321.571 56.5238 320.821 56.4955 320.226 56.4955C317.024 56.4955 314.276 56.878 311.981 57.643L310.961 51.5655C313.794 50.6873 317.066 50.248 320.778 50.248ZM317.804 64.8255V66.568H319.546C320.793 66.568 321.586 66.4263 321.926 66.143C322.294 65.8598 322.479 65.4913 322.479 65.038V63.0406H320.736C319.716 63.0406 318.966 63.1538 318.484 63.3805C318.031 63.5788 317.804 64.0605 317.804 64.8255Z" fill="#444444"/>
<path d="M306.798 65.7605L307.308 71.8805C305.835 72.4755 303.935 72.773 301.613 72.773C297.645 72.773 294.77 71.8523 292.985 70.0106C291.228 68.1406 290.35 65.3073 290.35 61.5105C290.35 57.7138 291.228 54.8948 292.985 53.053C294.77 51.183 297.645 50.248 301.613 50.248C304.078 50.248 305.975 50.5455 307.308 51.1405L306.288 56.9205C304.785 56.6088 303.595 56.453 302.718 56.453C300.565 56.453 299.488 57.2038 299.488 58.7056V66.313C300.31 66.483 301.358 66.568 302.633 66.568C303.935 66.568 305.325 66.2988 306.798 65.7605Z" fill="#444444"/>
<path d="M278.457 72.1357V51.9482L286.957 50.8857V72.1357H278.457ZM278.924 49.5257C278.301 49.044 277.989 48.1657 277.989 46.8907C277.989 45.6157 278.301 44.7232 278.924 44.2132C279.576 43.7032 280.837 43.4482 282.707 43.4482C284.606 43.4482 285.866 43.7032 286.489 44.2132C287.141 44.7232 287.467 45.6157 287.467 46.8907C287.467 48.1657 287.141 49.044 286.489 49.5257C285.866 50.0073 284.606 50.2482 282.707 50.2482C280.837 50.2482 279.576 50.0073 278.924 49.5257Z" fill="#444444"/>
<path d="M262.521 50.8855H266.771L269.108 53.2655C270.779 51.7355 272.876 50.7298 275.398 50.248L275.908 58.2805C275.228 58.3088 274.336 58.4788 273.231 58.7905C272.154 59.1023 271.416 59.4988 271.021 59.9805V72.1355H262.521V50.8855Z" fill="#444444"/>
<path d="M257.064 49.1007V50.8857H259.614V56.4107H257.064V72.1357H248.564V56.4107H246.439V50.8857H248.564L248.862 48.3357C249.258 45.0773 251.752 43.4482 256.342 43.4482C257.532 43.4482 259.09 43.5898 261.017 43.8732L260.549 49.4407L257.064 49.1007Z" fill="#444444"/>
<path d="M227.723 72.1357H218.756L225.641 45.5732H238.773L245.658 72.1357H236.691L235.713 67.9282H228.701L227.723 72.1357ZM231.973 53.7332L230.231 61.1707H234.141L232.441 53.7332H231.973Z" fill="#444444"/>
<path d="M211.585 67.9274V68.4374C211.5 69.6841 211.145 70.9166 210.522 72.1349C210.324 72.5033 210.21 72.7158 210.182 72.7724L207.292 78.5524L203.51 77.3199L204.912 71.1999C203.92 71.0299 203.24 70.7041 202.872 70.2224C202.532 69.7124 202.362 68.7916 202.362 67.4599C202.362 66.0999 202.674 65.0799 203.297 64.3999C203.92 63.7199 205.139 63.3799 206.952 63.3799C208.794 63.3799 210.027 63.7199 210.65 64.3999C211.272 65.0799 211.585 66.2558 211.585 67.9274Z" fill="#444444"/>
<path d="M183.767 69.9257L179.007 50.8857H187.507L189.844 64.6982H190.269L192.607 50.8857H201.107L195.794 72.1357C195 74.9125 194.009 76.7682 192.819 77.7032C191.629 78.6665 189.915 79.1482 187.677 79.1482H179.432V73.6232L183.427 72.8582C185.467 72.405 186.797 71.895 187.422 71.3282C187.762 71.0165 188.045 70.634 188.272 70.1807L188.229 69.9257H183.767Z" fill="#444444"/>
<path d="M167.089 50.248C173.889 50.248 177.289 52.5855 177.289 57.2605V72.1355H173.039L170.616 69.713C169.796 70.6763 168.676 71.4273 167.259 71.9655C165.843 72.5038 164.496 72.773 163.222 72.773C161.975 72.773 160.97 72.6738 160.205 72.4755C159.44 72.2773 158.689 71.9373 157.952 71.4555C156.337 70.4355 155.53 68.5373 155.53 65.7605C155.53 60.6605 159.383 58.1105 167.089 58.1105H168.789V56.5805C167.883 56.5238 167.131 56.4955 166.536 56.4955C163.335 56.4955 160.587 56.878 158.292 57.643L157.272 51.5655C160.105 50.6873 163.378 50.248 167.089 50.248ZM164.114 64.8255V66.568H165.856C167.103 66.568 167.896 66.4263 168.236 66.143C168.606 65.8598 168.789 65.4913 168.789 65.038V63.0406H167.046C166.026 63.0406 165.276 63.1538 164.794 63.3805C164.341 63.5788 164.114 64.0605 164.114 64.8255Z" fill="#444444"/>
<path d="M129.625 72.1357V45.5732H141.525C146.313 45.5732 149.6 46.5932 151.385 48.6332C153.17 50.6732 154.062 54.0875 154.062 58.8757C154.062 63.6357 153.17 67.0357 151.385 69.0757C149.6 71.1157 146.313 72.1357 141.525 72.1357H129.625ZM141.652 52.3732H138.125V65.3357H141.652C142.814 65.3357 143.65 65.2082 144.16 64.9532C144.698 64.67 144.967 64.0465 144.967 63.0832V54.6257C144.967 53.6625 144.698 53.0532 144.16 52.7982C143.65 52.515 142.814 52.3732 141.652 52.3732Z" fill="#444444"/>
<path d="M403.985 32.3291L399.225 13.2891H407.725L410.063 27.1016H410.488L412.825 13.2891H421.325L416.013 34.5391C415.22 37.3158 414.228 39.1716 413.038 40.1066C411.848 41.0698 410.135 41.5516 407.895 41.5516H399.65V36.0266L403.645 35.2616C405.685 34.8083 407.017 34.2983 407.64 33.7316C407.98 33.4198 408.265 33.0373 408.49 32.5841L408.448 32.3291H403.985Z" fill="#444444"/>
<path d="M384.594 18.7721V13.2896H386.719V9.88965L395.219 7.76465V13.2896H398.151V18.7721H395.219V28.4622C395.956 28.6039 396.791 28.7029 397.726 28.7596L397.344 35.0071C393.463 35.0071 390.941 34.7946 389.779 34.3696C388.334 33.8596 387.428 33.1796 387.059 32.3296C386.833 31.8196 386.719 31.2246 386.719 30.5447V18.7721H384.594Z" fill="#444444"/>
<path d="M373.127 34.5401V14.3525L381.627 13.29V34.5401H373.127ZM373.595 11.93C372.972 11.4484 372.66 10.57 372.66 9.29504C372.66 8.02002 372.972 7.12754 373.595 6.61754C374.247 6.10754 375.507 5.85254 377.377 5.85254C379.276 5.85254 380.537 6.10754 381.16 6.61754C381.812 7.12754 382.137 8.02002 382.137 9.29504C382.137 10.57 381.812 11.4484 381.16 11.93C380.537 12.4117 379.276 12.6525 377.377 12.6525C375.507 12.6525 374.247 12.4117 373.595 11.93Z" fill="#444444"/>
<path d="M368.513 6.27637V28.4614C369.42 28.6314 370.113 28.7305 370.595 28.7589L370.213 35.0064C366.585 35.0064 364.192 34.7939 363.03 34.3689C361.585 33.8305 360.693 33.1505 360.353 32.3289C360.125 31.8189 360.013 31.2239 360.013 30.5439V6.91387L368.513 6.27637Z" fill="#444444"/>
<path d="M347.271 34.5401V14.3525L355.771 13.29V34.5401H347.271ZM347.738 11.93C347.115 11.4484 346.803 10.57 346.803 9.29504C346.803 8.02002 347.115 7.12754 347.738 6.61754C348.39 6.10754 349.651 5.85254 351.521 5.85254C353.419 5.85254 354.68 6.10754 355.303 6.61754C355.955 7.12754 356.281 8.02002 356.281 9.29504C356.281 10.57 355.955 11.4484 355.303 11.93C354.68 12.4117 353.419 12.6525 351.521 12.6525C349.651 12.6525 348.39 12.4117 347.738 11.93Z" fill="#444444"/>
<path d="M321.995 33.4764V6.91387L330.495 6.27637V13.3314C331.572 12.878 332.974 12.6514 334.702 12.6514C336.459 12.6514 337.962 12.9772 339.207 13.6289C340.454 14.2805 341.404 15.173 342.055 16.3064C343.274 18.4314 343.882 20.9672 343.882 23.9139C343.882 27.9089 342.962 30.7847 341.12 32.5414C339.279 34.298 336.487 35.1764 332.747 35.1764C329.007 35.1764 325.424 34.6097 321.995 33.4764ZM330.495 20.4289V28.9714H331.812C332.832 28.9714 333.569 28.8722 334.022 28.6739C334.504 28.4472 334.745 27.9514 334.745 27.1864V18.8564H333.427C332.804 18.8564 332.309 18.8847 331.94 18.9414C331.572 18.998 331.247 19.1539 330.962 19.4089C330.679 19.6355 330.524 19.9755 330.495 20.4289Z" fill="#444444"/>
<path d="M307.953 12.6514C314.753 12.6514 318.153 14.9889 318.153 19.6639V34.5389H313.903L311.481 32.1164C310.66 33.0797 309.541 33.8306 308.123 34.3689C306.708 34.9072 305.361 35.1764 304.086 35.1764C302.84 35.1764 301.833 35.0772 301.068 34.8789C300.303 34.6806 299.553 34.3406 298.816 33.8589C297.201 32.8389 296.393 30.9406 296.393 28.1639C296.393 23.0639 300.248 20.5139 307.953 20.5139H309.653V18.9839C308.748 18.9272 307.996 18.8989 307.401 18.8989C304.2 18.8989 301.451 19.2814 299.156 20.0464L298.136 13.9689C300.97 13.0905 304.243 12.6514 307.953 12.6514ZM304.978 27.2289V28.9714H306.721C307.968 28.9714 308.761 28.8297 309.101 28.5464C309.47 28.2631 309.653 27.8947 309.653 27.4414V25.4439H307.911C306.891 25.4439 306.141 25.5572 305.658 25.7839C305.206 25.9822 304.978 26.4639 304.978 27.2289Z" fill="#444444"/>
<path d="M277.509 14.1389C279.351 13.1472 281.858 12.6514 285.031 12.6514C288.205 12.6514 291.123 13.0905 293.786 13.9689L292.809 19.7489C290.599 19.1256 288.389 18.8139 286.179 18.8139C285.499 18.8139 284.536 18.8706 283.288 18.9839V20.3439C287.878 20.3439 290.996 21.0239 292.638 22.3839C293.461 23.0639 294.041 23.8147 294.381 24.6364C294.721 25.4297 294.891 26.4072 294.891 27.5689C294.891 28.7022 294.75 29.7222 294.466 30.6289C294.211 31.5356 293.801 32.2581 293.233 32.7964C292.696 33.3347 292.129 33.7739 291.534 34.1139C290.939 34.4539 290.16 34.6947 289.196 34.8364C287.695 35.0631 285.953 35.1764 283.968 35.1764C280.456 35.1764 277.283 34.7656 274.448 33.9439L275.511 27.9089C277.891 28.6456 280.47 29.0139 283.246 29.0139C284.521 29.0139 285.683 28.9572 286.731 28.8439V27.4839C282.198 27.4839 279.068 26.8889 277.338 25.6989C275.638 24.5089 274.788 22.5397 274.788 19.7914C274.788 17.0147 275.696 15.1305 277.509 14.1389Z" fill="#444444"/>
<path d="M257.558 7.97656V27.9091H260.576C261.653 27.9091 262.39 27.7816 262.786 27.5266C263.183 27.2433 263.381 26.6198 263.381 25.6566V7.97656H271.881V22.8941C271.881 25.3023 271.725 27.2433 271.413 28.7166C271.103 30.1898 270.521 31.4366 269.671 32.4566C268.821 33.4766 267.66 34.1848 266.186 34.5816C264.713 34.9783 262.8 35.1766 260.448 35.1766C258.098 35.1766 256.185 34.9783 254.711 34.5816C253.266 34.1848 252.118 33.4766 251.268 32.4566C250.418 31.4366 249.838 30.1898 249.526 28.7166C249.215 27.2433 249.058 25.3023 249.058 22.8941V7.97656H257.558Z" fill="#444444"/>
<path d="M239.066 34.5389H234.816L232.988 32.7539C231.743 34.3689 229.518 35.1764 226.316 35.1764C224.588 35.1764 223.1 34.8505 221.853 34.1989C220.608 33.5472 219.658 32.6547 219.006 31.5214C217.788 29.3964 217.178 26.8605 217.178 23.9139C217.178 20.3155 217.973 17.5955 219.558 15.7539C220.153 15.0455 220.975 14.4647 222.023 14.0114C223.073 13.5297 224.29 13.2889 225.678 13.2889H230.566V6.91387L239.066 6.27637V34.5389ZM226.316 20.6414V28.9714H227.633C228.598 28.9714 229.305 28.8864 229.758 28.7164C230.24 28.518 230.51 28.093 230.566 27.4414V18.8564H229.248C228.228 18.8564 227.478 18.9697 226.996 19.1964C226.543 19.3947 226.316 19.8764 226.316 20.6414Z" fill="#444444"/>
<path d="M213.412 6.27637V28.4614C214.319 28.6314 215.014 28.7305 215.495 28.7589L215.112 35.0064C211.487 35.0064 209.092 34.7939 207.93 34.3689C206.485 33.8305 205.592 33.1505 205.252 32.3289C205.027 31.8189 204.912 31.2239 204.912 30.5439V6.91387L213.412 6.27637Z" fill="#444444"/>
<path d="M188.975 13.2889H193.225L195.562 15.6689C197.234 14.1389 199.332 13.133 201.852 12.6514L202.362 20.6839C201.682 20.7122 200.79 20.8822 199.685 21.1939C198.609 21.5056 197.872 21.9022 197.475 22.3839V34.5389H188.975V13.2889Z" fill="#444444"/>
<path d="M165.693 32.4139C163.936 30.5439 163.058 27.7106 163.058 23.9139C163.058 20.1172 163.936 17.2981 165.693 15.4564C167.478 13.5864 170.353 12.6514 174.32 12.6514C178.287 12.6514 181.148 13.5864 182.905 15.4564C184.69 17.2981 185.583 20.1172 185.583 23.9139C185.583 27.7106 184.69 30.5439 182.905 32.4139C181.148 34.2556 178.287 35.1764 174.32 35.1764C170.353 35.1764 167.478 34.2556 165.693 32.4139ZM172.195 20.6414V28.9714H173.513C174.533 28.9714 175.27 28.8722 175.723 28.6739C176.205 28.4472 176.445 27.9514 176.445 27.1864V18.8564H175.128C174.108 18.8564 173.357 18.9697 172.875 19.1964C172.422 19.3947 172.195 19.8764 172.195 20.6414Z" fill="#444444"/>
<path d="M153.51 7.97656H162.392L158.227 34.5391H147.135L145.18 24.7641H144.67L142.757 34.5391H131.665L127.5 7.97656H136.382L138.38 22.8091H138.635L141.695 7.97656H148.198L151.215 22.8091H151.47L153.51 7.97656Z" fill="#444444"/>
</g>
<defs>
<clipPath id="clip0_2868_3139">
<rect width="421.731" height="85" fill="white"/>
</clipPath>
</defs>
</svg>
